<?xml version="1.0" encoding="utf-8"?>
<!-- Generator: Adobe Illustrator 26.3.1, SVG Export Plug-In . SVG Version: 6.00 Build 0)  -->
<svg version="1.1" id="Layer_1" xmlns="http://www.w3.org/2000/svg" xmlns:xlink="http://www.w3.org/1999/xlink" x="0px" y="0px"
	 viewBox="0 0 100 100" style="enable-background:new 0 0 100 100;" xml:space="preserve">
<style type="text/css">
	.st0{fill:#FFFFFF;}
</style>
<g>
	<path class="st0" d="M49.8,10.4c12.9,0,14.4,0,19.5,0.3c4.7,0.2,7.3,1,9,1.7c2.3,0.9,3.9,1.9,5.6,3.6c1.7,1.7,2.7,3.3,3.6,5.6
		c0.7,1.7,1.4,4.3,1.7,9c0.2,5.1,0.3,6.6,0.3,19.5s0,14.4-0.3,19.5c-0.2,4.7-1,7.3-1.7,9c-0.9,2.3-1.9,3.9-3.6,5.6
		c-1.7,1.7-3.3,2.7-5.6,3.6c-1.7,0.7-4.3,1.4-9,1.7c-5.1,0.2-6.6,0.3-19.5,0.3s-14.4,0-19.5-0.3c-4.7-0.2-7.3-1-9-1.7
		c-2.3-0.9-3.9-1.9-5.6-3.6c-1.7-1.7-2.7-3.3-3.6-5.6c-0.7-1.7-1.4-4.3-1.7-9c-0.2-5.1-0.3-6.6-0.3-19.5s0-14.4,0.3-19.5
		c0.2-4.7,1-7.3,1.7-9c0.9-2.3,1.9-3.9,3.6-5.6c1.7-1.7,3.3-2.7,5.6-3.6c1.7-0.7,4.3-1.4,9-1.7C35.4,10.5,37,10.4,49.8,10.4
		 M49.8,1.7C36.7,1.7,35.1,1.8,29.9,2c-5.1,0.2-8.6,1.1-11.7,2.2c-3.2,1.2-5.9,2.9-8.6,5.6c-2.7,2.7-4.3,5.4-5.6,8.6
		c-1.2,3.1-2,6.6-2.2,11.7C1.6,35.3,1.6,36.9,1.6,50c0,13.1,0.1,14.8,0.3,19.9c0.2,5.1,1.1,8.6,2.2,11.7c1.2,3.2,2.9,5.9,5.6,8.6
		c2.7,2.7,5.4,4.3,8.6,5.6c3.1,1.2,6.6,2,11.7,2.2c5.1,0.2,6.8,0.3,19.9,0.3s14.8-0.1,19.9-0.3c5.1-0.2,8.6-1.1,11.7-2.2
		c3.2-1.2,5.9-2.9,8.6-5.6c2.7-2.7,4.3-5.4,5.6-8.6c1.2-3.1,2-6.6,2.2-11.7c0.2-5.1,0.3-6.8,0.3-19.9s-0.1-14.8-0.3-19.9
		c-0.2-5.1-1.1-8.6-2.2-11.7c-1.2-3.2-2.9-5.9-5.6-8.6c-2.7-2.7-5.4-4.3-8.6-5.6c-3.1-1.2-6.6-2-11.7-2.2C64.6,1.8,63,1.7,49.8,1.7
		L49.8,1.7z"/>
	<path class="st0" d="M49.8,25.2c-13.7,0-24.8,11.1-24.8,24.8c0,13.7,11.1,24.8,24.8,24.8S74.6,63.7,74.6,50
		C74.6,36.3,63.5,25.2,49.8,25.2z M49.8,66.1c-8.9,0-16.1-7.2-16.1-16.1c0-8.9,7.2-16.1,16.1-16.1c8.9,0,16.1,7.2,16.1,16.1
		C65.9,58.9,58.7,66.1,49.8,66.1z"/>
	<circle class="st0" cx="75.6" cy="24.2" r="5.8"/>
</g>
</svg>
